<?xml version="1.0" standalone="no"?>
<!DOCTYPE svg PUBLIC "-//W3C//DTD SVG 20010904//EN"
 "http://www.w3.org/TR/2001/REC-SVG-20010904/DTD/svg10.dtd">
<svg version="1.0" xmlns="http://www.w3.org/2000/svg"
 width="591.000000pt" height="153.000000pt" viewBox="0 0 591.000000 153.000000"
 preserveAspectRatio="xMidYMid meet">
<g transform="translate(0.000000,153.000000) scale(0.100000,-0.100000)"
fill="#f33132" stroke="none">
<path d="M3793 1438 c-26 -13 -26 -14 -23 -158 1 -77 6 -110 17 -122 13 -15
12 -19 -7 -38 -22 -22 -40 -19 -40 6 0 8 -11 24 -25 36 -20 17 -36 21 -68 19
-23 -2 -50 -7 -60 -12 -26 -15 -33 16 -26 118 6 75 4 92 -11 113 -19 28 -78
39 -114 21 -12 -5 -46 -12 -76 -16 -43 -5 -60 -12 -78 -33 -22 -25 -23 -35
-21 -117 4 -97 -2 -119 -31 -110 -10 3 -40 0 -66 -6 -47 -12 -48 -12 -74 19
-26 31 -26 31 -90 22 -35 -5 -67 -7 -72 -4 -4 3 -5 51 -1 108 6 98 5 104 -17
126 -24 24 -36 24 -170 0 -100 -18 -109 -31 -112 -158 l-3 -105 -64 -2 c-85
-3 -111 -29 -111 -110 0 -66 -17 -73 -58 -24 -65 76 -80 89 -136 118 -54 29
-65 31 -166 31 -100 0 -111 -2 -167 -31 -71 -36 -100 -62 -143 -124 -18 -26
-37 -44 -43 -42 -8 2 -12 30 -13 73 0 38 -4 78 -7 90 -4 12 -9 69 -12 127 -6
147 -6 147 -173 147 -123 0 -130 -1 -151 -24 -21 -23 -22 -27 -12 -101 16
-115 15 -157 -6 -153 -11 2 -26 29 -43 80 -14 42 -29 80 -33 84 -4 4 -7 14 -7
23 -1 9 -10 27 -21 40 -19 23 -25 24 -157 26 -123 1 -139 -1 -160 -19 l-22
-19 0 -513 c0 -452 2 -513 16 -525 21 -17 310 -19 333 -2 14 10 16 38 16 195
0 113 4 185 10 187 13 5 39 -48 60 -124 9 -33 23 -73 31 -88 8 -16 14 -38 14
-50 0 -12 7 -31 15 -41 8 -11 15 -25 15 -32 0 -7 11 -25 25 -40 l24 -26 88 10
c48 5 102 8 118 5 23 -3 37 2 58 21 25 23 27 30 21 75 -9 73 8 74 75 4 62 -66
116 -103 152 -103 13 0 33 -7 43 -15 25 -19 123 -20 173 -1 21 8 50 17 66 20
30 7 177 140 177 161 0 7 7 18 15 25 8 7 15 24 15 39 0 15 5 32 12 39 17 17
17 227 1 243 -7 7 -13 23 -13 35 0 19 7 22 71 28 39 4 73 5 76 2 3 -3 0 -89
-6 -191 -15 -231 -7 -369 22 -396 25 -23 58 -24 98 -3 17 8 42 14 57 13 49 -4
60 1 81 34 18 30 20 50 21 291 0 142 3 262 5 266 3 5 34 13 70 19 69 12 97 6
109 -25 6 -15 18 -16 91 -11 l85 6 -5 -281 c-5 -279 -5 -281 17 -305 25 -27
54 -29 104 -8 19 8 51 14 70 13 25 -1 42 6 59 23 24 24 24 26 30 293 3 148 8
272 10 276 8 13 143 33 170 26 l25 -6 0 -303 1 -302 26 -19 c23 -17 31 -18 67
-7 23 7 58 14 79 16 67 5 74 20 69 139 -2 58 -1 117 3 133 6 26 7 27 18 8 6
-11 16 -24 23 -30 6 -5 14 -22 18 -36 13 -59 181 -209 235 -209 14 -1 37 -7
51 -15 33 -19 141 -19 187 0 19 8 47 15 60 15 68 0 243 145 243 200 0 16 -19
46 -53 83 -43 47 -58 57 -84 57 -27 0 -80 -32 -103 -61 -3 -4 -31 -21 -63 -38
-62 -33 -97 -40 -97 -17 0 24 12 46 25 46 6 0 30 12 52 28 46 32 60 41 133 84
74 44 130 96 130 122 0 25 -58 143 -96 194 -55 75 -165 152 -217 152 -9 0 -19
5 -22 10 -10 16 -102 12 -159 -7 -112 -36 -169 -76 -213 -151 -14 -24 -30 -41
-37 -39 -6 2 -12 32 -13 73 0 38 -4 81 -8 95 -5 21 -2 29 19 43 25 16 26 20
26 119 0 126 -10 141 -105 151 -33 3 -73 8 -90 11 -16 2 -40 -1 -52 -7z m169
-92 c4 -6 8 -41 8 -77 0 -76 -3 -79 -92 -79 l-48 0 0 83 c0 46 3 87 8 91 10
11 116 -4 124 -18z m-467 -124 l0 -117 38 -3 c21 -2 59 1 83 6 34 8 48 7 58
-4 15 -15 40 -107 34 -125 -2 -7 -38 -13 -91 -15 -132 -7 -133 -7 -141 -101
-3 -43 -9 -170 -12 -283 -3 -113 -9 -209 -13 -213 -14 -15 -115 -26 -123 -13
-4 6 -6 135 -3 286 2 151 1 281 -4 288 -7 11 -24 12 -92 4 -46 -6 -87 -7 -92
-3 -4 4 -4 35 -1 70 8 73 19 81 113 81 35 0 63 5 69 13 5 6 13 61 17 120 8
119 13 127 77 127 18 0 40 5 48 10 28 17 35 -9 35 -128z m-635 2 l0 -126 91 4
90 3 20 -58 c11 -32 17 -62 14 -67 -3 -4 -44 -11 -93 -15 -48 -3 -98 -10 -112
-14 l-25 -8 -10 -286 c-6 -157 -14 -289 -18 -293 -4 -4 -34 -10 -67 -12 l-60
-4 0 290 c0 175 -4 293 -10 297 -5 3 -48 1 -96 -5 -48 -6 -91 -7 -96 -2 -4 4
-2 26 6 47 8 22 17 52 20 67 6 25 10 27 81 33 42 4 82 13 89 21 10 9 14 45 15
116 1 56 6 107 11 112 9 9 73 21 128 25 22 1 22 -1 22 -125z m-1226 84 c3 -13
6 -55 6 -94 0 -39 4 -93 9 -121 12 -59 48 -457 56 -599 4 -76 2 -104 -8 -112
-7 -6 -54 -14 -105 -18 -84 -6 -92 -5 -98 12 -3 10 -12 33 -20 51 -8 17 -14
37 -14 45 0 8 -4 18 -8 23 -5 6 -19 39 -32 75 -13 36 -34 86 -46 112 -25 50
-43 97 -76 198 -32 99 -54 151 -64 151 -5 -1 -10 -145 -11 -333 -1 -182 -6
-335 -11 -340 -5 -5 -56 -7 -113 -6 l-104 3 0 475 0 475 96 2 c63 1 101 -2
111 -10 8 -7 30 -48 48 -92 19 -44 37 -84 41 -90 8 -12 67 -149 80 -185 46
-137 68 -191 86 -214 18 -23 22 -24 25 -9 2 10 1 32 -4 48 -17 66 -52 550 -42
567 3 4 47 8 98 8 89 0 94 -1 100 -22z m594 -251 c95 -46 192 -167 192 -240 0
-11 5 -37 12 -59 9 -31 9 -57 -1 -116 -16 -100 -42 -157 -94 -210 -64 -66
-115 -86 -217 -86 -103 0 -152 19 -234 95 -93 84 -126 166 -126 306 0 102 11
136 67 212 56 74 125 117 213 130 67 11 118 2 188 -32z m1716 16 c9 -30 -2
-475 -13 -523 -6 -25 -10 -75 -11 -112 0 -75 -7 -83 -70 -89 l-35 -4 -11 355
c-6 206 -6 360 -1 367 8 11 38 17 109 21 18 1 28 -4 32 -15z m533 -20 c51 -24
119 -89 157 -151 56 -93 56 -102 -6 -148 -29 -22 -77 -55 -106 -72 -30 -18
-63 -42 -75 -53 -12 -10 -49 -38 -84 -60 -35 -23 -63 -47 -63 -54 0 -8 30 -28
66 -45 l66 -31 56 16 c46 14 108 48 179 100 14 10 37 -11 63 -57 14 -23 -48
-80 -130 -121 -60 -30 -72 -32 -170 -32 -101 0 -108 1 -168 34 -75 41 -147
118 -187 199 -38 76 -47 214 -19 291 22 62 92 145 147 172 77 40 203 45 274
12z"/>
<path d="M2008 932 c-61 -40 -98 -112 -98 -189 0 -50 23 -138 40 -153 3 -3 13
-17 23 -32 20 -33 112 -88 145 -88 35 0 98 36 126 73 34 44 55 106 49 143 -19
125 -45 179 -110 233 -32 26 -46 31 -93 31 -36 0 -64 -6 -82 -18z m123 -66
c89 -61 115 -215 49 -286 -64 -69 -142 -22 -194 117 -15 40 -14 46 2 85 23 57
32 71 62 91 32 22 39 22 81 -7z"/>
<path d="M2067 774 c-13 -14 -7 -53 14 -88 36 -61 58 -38 43 43 -7 35 -14 47
-29 49 -12 2 -24 0 -28 -4z"/>
<path d="M4300 902 c-41 -28 -69 -65 -81 -107 -13 -46 -8 -150 8 -166 7 -7 44
12 124 63 63 41 131 83 152 93 53 28 48 46 -32 103 -36 26 -53 32 -95 31 -31
0 -61 -7 -76 -17z m128 -69 c3 -17 -4 -26 -25 -35 -15 -7 -45 -25 -66 -41 -74
-57 -92 6 -20 71 30 26 45 32 73 30 28 -2 36 -8 38 -25z"/>
<path d="M3016 1399 c-21 -107 11 -172 58 -120 20 22 16 60 -12 118 -20 42
-38 42 -46 2z"/>
<path d="M3655 1418 c-10 -24 -1 -153 10 -153 13 0 19 145 6 158 -7 7 -12 5
-16 -5z"/>
<path d="M4118 1318 c2 -62 8 -117 13 -123 6 -6 19 0 36 17 23 23 26 34 24 83
-2 65 -32 135 -59 135 -15 0 -17 -11 -14 -112z"/>
<path d="M1792 1293 c3 -114 11 -130 47 -94 15 15 21 34 21 68 0 53 -34 133
-56 133 -12 0 -14 -19 -12 -107z"/>
<path d="M4730 1061 c0 -6 5 -13 11 -16 5 -4 15 -17 20 -28 5 -12 21 -42 36
-67 33 -55 44 -177 22 -242 -13 -40 -13 -40 24 -75 21 -19 42 -45 47 -59 15
-38 12 -141 -5 -173 -38 -75 -203 -188 -300 -206 -50 -9 -256 -10 -310 -1 -52
9 -111 38 -155 75 l-35 30 -40 -46 c-44 -50 -70 -57 -222 -67 -90 -6 -108 -23
-53 -51 19 -10 57 -15 117 -15 93 0 158 17 201 50 34 28 55 25 157 -17 89 -36
92 -37 230 -37 110 -1 151 3 190 17 120 43 243 136 285 214 35 65 20 185 -27
221 -14 10 -18 32 -19 125 -1 63 -5 124 -9 138 -14 50 -80 172 -110 205 -30
33 -55 44 -55 25z"/>
<path d="M2988 553 c-4 -216 -7 -252 -23 -279 -37 -62 -109 -87 -248 -84 -68
1 -97 -6 -97 -25 0 -63 259 -65 360 -3 12 7 31 31 44 53 22 37 24 55 31 255 4
118 12 221 17 228 6 6 25 12 42 12 36 0 56 15 56 42 0 15 -9 18 -55 18 -40 0
-57 4 -61 15 -4 8 -18 15 -34 15 l-27 0 -5 -247z"/>
<path d="M3618 553 c-4 -270 -8 -287 -65 -329 -31 -23 -108 -35 -211 -34 -60
1 -92 -10 -92 -32 0 -5 21 -18 48 -29 40 -17 59 -20 127 -14 99 8 148 22 213
59 40 23 44 31 27 62 -12 24 -15 76 -15 297 0 221 -2 267 -14 267 -11 0 -15
-45 -18 -247z"/>
<path d="M2510 379 c0 -19 -122 -133 -165 -155 -55 -28 -101 -36 -230 -36
-132 -1 -166 5 -228 43 -26 16 -50 29 -53 29 -2 0 -18 -9 -33 -21 -32 -23 -60
-28 -244 -35 l-129 -6 -34 33 -34 33 -33 -32 -33 -32 -186 0 c-110 0 -189 -4
-193 -10 -10 -17 34 -45 88 -55 64 -13 330 -2 372 15 30 12 49 10 182 -20 27
-6 52 -6 68 0 15 6 52 10 83 10 31 0 75 5 97 11 73 20 114 22 138 7 44 -29
122 -43 237 -43 137 0 196 19 305 98 31 22 40 35 41 60 1 18 5 51 9 75 6 35 5
42 -9 42 -9 0 -16 -5 -16 -11z"/>
</g>
</svg>
